/* XPM */
static char *a342834545034e1ce9a42d58847339226gBqgkTXk9C4evjJ[] = {
/* columns rows colors chars-per-pixel */
"40 80 2 1 ",
"  c None",
"# c black",
/* pixels */
"########################################",
"# # ## # ## # ## # ## # ## # ## # ## # #",
"########################################",
"# # ## # ## # ## # ## # ## # ## # ## # #",
"########################################",
"########################################",
"# # ## # ## # ## # ## # ## # ## # ## # #",
"########################################",
"# # ## # ## # ## # ## # ## # ## # ## # #",
"########################################",
"########################################",
"# # ## # ## # ## # ## # ## # ## # ## # #",
"########################################",
"# # ## # ## # ## # ## # ## # ## # ## # #",
"########################################",
"########################################",
"# # ## # ## # ## # ## # ## # ## # ## # #",
"########################################",
"# # ## # ## # ## # ## # ## # ## # ## # #",
"########################################",
"       #   # #  # # #   #  #    #     # ",
"       #   # # #####   #  # #   #    #  ",
"       #        # #   #   ##         #  ",
"               ##### #   #  #        #  ",
"       #        # # #   # ## #        # ",
" #                               # #####",
"  #   # #   #                   #  #   #",
"  #    #   ###       ###        #  # # #",
"  #   # #   #    #              #  #   #",
" #               #         #   #   #####",
"  #  ###########   #####################",
"  #      #    ##   ##    #        ##   #",
"  #  #####  ##################   # #####",
"  #  #        #    #    ##   #  #  #   #",
"  #  ##########    ###########  #  #####",
"#####             #       #   ##### ### ",
"#   #  #    #    #   ###   #      ## ###",
"#####           #           #   #### ###",
"    #  #    #    #   ###   #       #    ",
"#####      #      #       #     #   ####",
"######### ######### ################   #",
"#   ##  # #    #   ##    #    #    #   #",
"#   #######    #   ####  ###  # ########",
"######   ##    #   ##    #    #   ##   #",
"#   ############### ######    ######   #",
" ###   ####   ##    #   ##   ###########",
"  #     # #  # #    ## ####  ##   ##   #",
"  #     # ######    # # ## # ##   ##   #",
"  #  #  # #   ##    #   ##  ###   ######",
" ### #### #   #######   ##   #######    ",
"#####################   ##   ##   ##   #",
"#   ##   ##      #  #   ##   ##   # # # ",
"#   ###########  #  #   ##   ## # # ### ",
"#  # #  #     #  #  #   # # # ## ## # # ",
"### ##   ######  #  #####  #  #   ##   #",
"#   ######  ##  #    ##    #        ### ",
"#   #   #   #    #    #   # #          #",
"#####  #    #    #    #             ####",
"  #   #     #    #    #            #   #",
"  #  #####  ##    #  ##        ###  ####",
"#     ###     # ###  #### ### #      #  ",
"#### #   # #####   # #   #    #         ",
"#   ##    #   #########  # #######   #  ",
"#   ##   ##   ##     #   #   ##   #  #  ",
"####  ###  #### ###  #    ### #   #  #  ",
"  #     # #     #   #    ####  ### # ## ",
"          #  #  #   ## # #   ##   ###  #",
"  #     # ###   #   # # ##   ##   ##   #",
"  #   # # #  #  #   # # ##   ##   ##### ",
"  #   ### #   #  ## # # ##   # ### #    ",
" ### # ##  #### #   #   ##   ##   ##   #",
"#   # #  ##     #   #   ##   ## # # # # ",
"#   # #    ### ###  #   # # # # # #  #  ",
"#  #  #       # #   #   # # #  # #  # # ",
" ## # #   ####  #### ###   #   # # #   #",
"#   ####    #    ##   #   ##       #####",
" # #    ##   #   #    #    #   #   # # #",
"  #    #        #     #     # # # ######",
"  #  ##          #    #    #     # # # #",
"  #    ###       ##   #   ##       #####"
};
