/* XPM */
static char *_d50974894294ab08a7c8f62421dc4b2GU1OfA9X69mIdKx0[] = {
/* columns rows colors chars-per-pixel */
"84 84 2 1 ",
"  c None",
". c black",
/* pixels */
"                                                                                    ",
" .....  ....   .....  ....   .....  .....   ...   .       ...       .   ...    .... ",
" .   .  .  .   .      .   .  .      .          .  ....   .   .   ....  .   .   .    ",
" .   .  .....  .      .   .  ...    ...     ....  .   .  .      .   .  .....  ...   ",
" .....  .   .  .      .   .  .      .      .   .  .   .  .   .  .   .  .       .    ",
" .   .  .....  .....  ....   .....  .       ....  ....    ...    ....   ...    .    ",
"                                                                                    ",
"                                                                                    ",
" .....  .   .   ...     ...  .   .  .       ...   .        .       .   .       .    ",
" .      .   .    .       .   .  .   .      .      .                    .  .    .    ",
" . ...  .....    .       .   .....  .      . ...  ....     .       .   ...     .    ",
" .   .  .   .    .    .  .   .   .  .      .   .  .   .    .     . .   .  .    .    ",
" .....  .   .   ...   ....   .   .  .....   ...   .   .    .     ...   .   .    ..  ",
"                                                                                    ",
"                                                                                    ",
" .   .  .   .  .....  .....  .....  .....  .      ....    ...   . ..    ...   . ..  ",
" .. ..  ..  .  .   .  .   .  .   .  .   .  .. .   .   .  .   .  ..  .  .   .   .  . ",
" . . .  . . .  .   .  .   .  .   .  .....  . . .  .   .  .   .  .   .  .   .   .    ",
" .   .  .  ..  .   .  .....  .  .   .  .   . . .  .   .  .   .  ....   .  .    .    ",
" .   .  .   .  .....  .      ... .  .   .  . . .  .   .   ...   .       .. .   .    ",
"                                                                                    ",
"                                                                                    ",
" .....  .....  .   .  .   .  .   .  .   .   ....   .     .   .  .   .  .   .  .   . ",
" .        .    .   .  .   .  .   .   . .   .       .     .   .  .   .  . . .   . .  ",
" .....    .    .   .  .   .  . . .   ...    ...   ...    .   .   . .   . . .    .   ",
"     .    .    .   .   . .   .. ..   . .       .   .     .   .   . .    . .    . .  ",
" .....    .    .....    .    .   .  .   .  ....    ....   ...     .     . .   .   . ",
"                                                                                    ",
"                                                                                    ",
" .   .  .....                              .   .  ...                               ",
" .   .     .                                . .      ..                             ",
" .....    .                                  .      .                               ",
"   .     .                                   .    ..                                ",
"   .    .....                                .      ...                             ",
"                                                                                    ",
"                                                                                    ",
"        .....   ..    .....  .....  .   .  .....  .....  .....  .....  .....        ",
"        .   .    .        .      .  .   .  .      .          .  .   .  .   .        ",
"        . . .    .    .....    ...  .....  .....  .....     .   .....  .....        ",
"        .   .    .    .          .      .      .  .   .    .    .   .      .        ",
"        .....    .    .....  .....      .  .....  .....    .    .....  .....        ",
"                                                                                    ",
"                                                                                    ",
"   .     . .    . .   .   .    .      .       .    .                                ",
"   .     . .   .....     .    . .     .      .      .     . .     .                 ",
"   .            . .     .     ..             .      .      .     ...           ...  ",
"               .....   .     .  .            .      .     . .     .      .          ",
"   .            . .   .   .   .. .            .    .                     .          ",
"                                                                                    ",
"                                                                                    ",
"           .                    .           .     .....   ...     ..    .      ..   ",
"          .      .      .      .     ...     .        .  . ...    .      .      .   ",
"          .                   .               .     ...  . ...    .      .      .   ",
"          .      .      .      .     ...     .           .        .      .      .   ",
"   .     .             .        .           .       .     ....    ..      .    ..   ",
"                                                                                    ",
"                                                                                    ",
"   .             .      ..     .     ..                                             ",
"  . .             .     .      .      .     .                                       ",
"                       .       .       .   . . .                                    ",
"                        .      .      .       .                                     ",
"         ...            ..     .     ..                                             ",
"                                                                                    ",
"                                                                                    ",
" .....                                                                              ",
" . . .                                                                              ",
" .....                                                                              ",
" . . .                                                                              ",
" .....                                                                              ",
"                                                                                    ",
"                                                                                    ",
"                                                                                    ",
"                                                                                    ",
"                                                                                    ",
"                                                                                    ",
"                                                                                    ",
"                                                                                    ",
"                                                                                    ",
"                                                                                    ",
"                                                                                    ",
"                                                                                    ",
"                                                                                    ",
"                                                                                    ",
"                                                                                    "
};
