/* XPM */
static char *result[] = {
/* columns rows colors chars-per-pixel */
"128 32 128 2 ",
"   c #050504",
".  c #01000A",
"X  c #1A0B01",
"o  c #151002",
"O  c #351C13",
"+  c #291D2B",
"@  c #3D2F28",
"#  c #3F3026",
"$  c #3D342B",
"%  c #3C3631",
"&  c #3B3834",
"*  c #433A27",
"=  c #42352B",
"-  c #45392D",
";  c #433631",
":  c #4B3B35",
">  c #4F443C",
",  c #534236",
"<  c #56443A",
"1  c #5D513E",
"2  c #68493C",
"3  c #534746",
"4  c #514841",
"5  c #564F49",
"6  c #5B4F48",
"7  c #5D5146",
"8  c #5A514A",
"9  c #624F44",
"0  c #635245",
"q  c #685545",
"w  c #64534A",
"e  c #685349",
"r  c #6B594C",
"t  c #725C4D",
"y  c #635851",
"u  c #6E5D54",
"i  c #655D5B",
"p  c #6E5D5B",
"a  c #725D52",
"s  c #785857",
"d  c #6F625A",
"f  c #756155",
"g  c #786154",
"h  c #70605A",
"j  c #9A452C",
"k  c #A34825",
"l  c #A6482A",
"z  c #AF4C2A",
"x  c #B1452E",
"c  c #BD402F",
"v  c #BD4E2E",
"b  c #BD5227",
"n  c #BD522C",
"m  c #BF5C2C",
"M  c #AA4532",
"N  c #A64D33",
"B  c #A94F33",
"V  c #B14632",
"C  c #B94735",
"Z  c #BE4E39",
"A  c #B45433",
"S  c #BE5333",
"D  c #B35A33",
"F  c #BD5339",
"G  c #B85A3B",
"H  c #C54E2E",
"J  c #C2532E",
"K  c #CA5F2F",
"L  c #C44E32",
"P  c #C94E36",
"I  c #D2483C",
"U  c #C35433",
"Y  c #CA5333",
"T  c #C55D34",
"R  c #CB5D34",
"E  c #C25138",
"W  c #C35E3D",
"Q  c #CC5B3A",
"!  c #D25935",
"~  c #DC5C34",
"^  c #D65638",
"/  c #D8523E",
"(  c #D3583B",
")  c #C26234",
"_  c #CA6235",
"`  c #C5633B",
"'  c #CB6538",
"]  c #8D736A",
"[  c #CE4E40",
"{  c #C76541",
"}  c #DE6B4D",
"|  c #8F817F",
" . c #938580",
".. c #B39F9C",
"X. c #BDAB8D",
"o. c #BEAD95",
"O. c #BDAE9A",
"+. c #BEB39C",
"@. c #ADA6A5",
"#. c #B1A4A2",
"$. c #C1AB90",
"%. c #C3B097",
"&. c #CDBD9F",
"*. c #D3BE95",
"=. c #DABB97",
"-. c #D5BA9D",
";. c #C9BFA2",
":. c #D1BEA4",
">. c #C7C39E",
",. c #CFCFAD",
"<. c #DACBA0",
"1. c #DECEAE",
"2. c #D7D3AC",
"3. c #DDD2AB",
"4. c #DADAAA",
"5. c #D7D5B3",
"6. c #DCD2B2",
"7. c #DED5B9",
"8. c #E0CDAB",
"9. c #E2D3AD",
"0. c #E2CCB4",
"q. c #E3D2B3",
"w. c #E9D3B6",
"e. c #E6D6B9",
"r. c #E7D8BA",
"t. c #EFDABE",
"y. c #EDDFC0",
"u. c None",
/* pixels */
"u.u.u.u.u.u.u.u.u.u.u.u.u.u.u.u.u.u.u.u.u.u.u.u.u.u.u.u.u.u.u.u.u.u.u.u.u.u.u.u.u.u.u.u.u.u.u.u.u.u.u.u.u.u.u.u.u.u.u.u.u.u.u.u.u.u.u.u.u.u.u.u.u.u.u.u.u.u.u.u.u.u.u.u.u.u.u.u.u.u.u.u.u.u.u.u.u.u.u.u.u.u.u.u.u.u.u.u.u.u.u.u.u.u.u.u.u.u.u.u.u.u.u.u.u.u.u.u.",
"u.u.u.u.u.u.u.u.u.u.u.u.u.u.u.u.u.u.u.u.u.u.u.u.u.u.u.u.u.u.u.u.u.u.u.u.u.u.u.u.u.u.u.u.u.u.u.u.u.u.u.u.u.u.u.u.u.u.u.u.u.u.u.u.u.u.u.u.u.u.u.u.u.u.u.u.u.u.u.u.u.u.u.u.u.u.u.u.u.u.u.u.u.u.u.u.u.u.u.u.u.u.u.u.u.u.u.u.u.u.u.u.u.u.u.u.u.u.u.u.u.u.u.u.u.u.u.u.",
"u.u.u.u.u.u.u.u.u.u.u.u.u.u.u.u.u.u.u.u.u.u.u.u.u.u.u.u.u.u.u.u.u.u.u.u.u.u.u.u.u.u.u.u.u.u.u.u.u.u.u.u.u.u.u.u.u.u.u.u.u.u.u.u.u.u.u.u.u.u.u.u.u.u.u.u.u.u.u.u.u.u.u.u.u.u.u.u.u.u.u.u.u.u.u.u.u.u.u.u.u.u.u.u.u.u.u.u.u.u.u.u.u.u.u.u.u.u.u.u.u.u.u.u.u.u.u.u.",
"u.u.u.u.u.u.u.u.u.u.u.u.u.u.u.u.u.u.u.u.u.u.u.u.u.u.u.u.u.u.u.u.u.u.u.u.u.u.u.u.u.u.u.u.u.u.u.u.u.u.u.u.u.u.u.u.u.u.u.u.u.u.u.u.u.u.u.u.u.u.u.u.u.u.u.u.u.u.u.u.u.u.u.u.u.u.u.u.u.u.u.u.u.u.u.u.u.u.u.u.u.u.u.u.u.u.u.u.u.u.u.u.u.u.u.u.u.u.u.u.u.u.u.u.u.u.u.u.",
"u.u.u.u.u.u.u.u.u.u.u.u.u.u.u.u.u.u.u.u.u.u.u.u.u.u.u.u.u.u.u.u.u.u.u.u.u.u.u.u.u.u.u.u.u.u.u.u.u.u.u.u.u.u.u.u.u.u.u.u.u.u.u.u.u.u.u.u.u.u.u.u.u.u.u.u.u.u.u.u.u.u.u.u.u.u.u.u.u.u.u.u.u.u.u.u.u.u.u.u.u.u.u.u.u.u.u.u.u.u.u.u.u.u.u.u.u.u.u.u.u.u.u.u.u.u.u.u.",
"u.u.u.u.u.u.u.u.u.u.u.u.u.u.u.u.u.u.u.u.u.u.u.u.u.u.u.u.u.u.u.u.u.u.u.u.u.u.u.u.u.u.u.u.u.u.u.u.u.u.u.u.u.u.u.u.u.u.u.u.u.u.u.u.u.u.u.u.u.u.u.u.u.u.u.u.u.u.u.u.u.u.u.u.u.u.u.u.u.u.u.u.u.u.u.u.u.u.u.u.u.u.u.u.u.u.u.u.u.u.u.u.u.u.u.u.u.u.u.u.u.u.u.u.u.u.u.u.",
"u.u.u.u.u.u.u.u.u.u.u.u.u.u.u.u.u.u.u.u.u.u.u.u.u.u.u.u.u.u.u.u.u.u.u.u.u.u.u.u.u.u.u.u.u.u.u.u.u.u.u.u.u.u.u.u.u.u.u.u.u.u.u.u.u.u.u.u.u.u.u.u.u.u.u.u.u.u.u.u.u.u.u.u.u.u.u.u.u.u.u.u.u.u.u.u.u.u.u.u.u.u.u.u.u.u.u.u.u.u.u.u.u.u.u.u.u.u.u.u.u.u.u.u.u.u.u.u.",
"u.u.u.u.u.u.u.u.u.u.u.u.u.u.u.u.u.u.u.u.u.u.u.u.u.u.u.u.u.u.u.u.u.u.u.u.u.u.u.u.u.u.u.u.u.u.u.u.u.u.u.u.u.u.u.u.u.u.u.u.u.u.u.u.u.u.u.u.u.u.u.u.u.u.u.u.u.u.u.u.u.u.u.u.u.u.u.u.u.u.u.u.u.u.u.u.u.u.u.u.u.u.u.u.u.u.u.u.u.u.u.u.u.u.u.u.u.u.u.u.u.u.u.u.u.u.u.u.",
"u.u.u.u.u.u.u.u.u.u.u.u.u.u.u.u.u.u.u.u.u.u.u.u.u.u.u.u.u.u.u.u.u.u.u.u.u.u.u.u.u.u.u.u.u.u.u.u.u.u.u.u.u.u.u.u.u.u.u.u.u.u.u.u.u.u.u.u.u.u.u.u.u.u.u.u.u.u.u.u.u.u.u.u.u.u.u.u.u.u.u.u.u.u.u.u.u.u.u.u.u.u.u.u.u.u.u.u.u.u.u.u.u.u.u.u.u.u.u.u.u.u.u.u.u.u.u.u.",
"u.u.u.u.u.u.u.u.u.u.u.u.u.u.u.u.u.u.u.u.u.u.u.u.u.u.u.u.u.u.u.u.u.u.u.u.u.u.u.u.u.u.u.u.u.u.u.u.u.u.u.u.u.u.u.u.u.u.u.u.u.u.u.u.u.u.u.u.u.u.u.u.u.u.u.u.u.u.u.u.u.u.u.u.u.u.u.u.u.u.u.u.u.u.u.u.u.u.u.u.u.u.u.u.u.u.u.u.u.u.u.u.u.u.u.u.u.u.u.u.u.u.u.u.u.u.u.u.",
"u.u.u.u.u.u.u.u.u.u.u.u.u.u.u.u.u.u.u.u.u.u.u.u.u.u.u.u.u.u.u.u.u.u.u.u.u.u.u.u.u.u.u.u.u.u.u.u.u.u.u.u.u.u.u.u.u.u.u.u.u.u.u.u.u.u.u.u.u.u.u.u.u.u.u.u.u.u.u.u.u.u.u.u.u.u.u.u.u.u.u.u.u.u.u.u.u.u.u.u.u.u.u.u.u.u.u.u.u.u.u.u.u.u.u.u.u.u.u.u.u.u.u.u.u.u.u.u.",
"u.u.u.u.u.u.u.u.u.u.u.u.u.u.u.u.u.u.u.u.u.u.u.u.u.u.u.u.u.u.u.u.u.u.u.u.u.u.u.u.u.u.u.u.u.u.u.u.u.u.u.u.u.u.u.u.u.u.u.u.u.u.u.u.u.u.u.u.u.u.u.u.u.u.u.u.u.u.u.u.u.u.u.u.u.u.u.u.u.u.u.u.u.u.u.u.u.u.u.u.u.u.u.u.u.u.u.u.@.@.u.u.u.u.u.u.u.u.u.u.u.u.u.u.u.u.u.u.",
"u.u.u.u.u.u.u.u.u.u.u.u.u.u.u.u.u.u.u.u.u.u.u.u.u.u.u.u.u.u.u.u.u.u.u.u.u.u.u.u.u.u.u.u.u.u.u.u.u.u.u.u.u.u.u.u.u.u.u.u.u.u.u.u.u.u.u.u.u.u.u.u.u.u.u.u.u.u.u.u.u.u.u.u.u.u.u.u.u.u.u.u.u.u.u.u.u.u.u.u.u.u.u.u.u.u.u.u.@.#.#.#. . .u.u.u.u.u.u.u.u.u.u.u.u.u.u.",
"u.u.u.u.u.u.u.u.u.u.u.u.u.u.u.u.u.u.u.u.u.u.u.u.u.u.u.u.u.u.u.u.u.u.u.u.u.u.u.u.u.u.F F u.u.u.u.u.u.u.u.u.u.u.u.u.u.u.u.u.u.u.u.u.u.u.u.u.u.u.u.u.u.u.u.u.u.u.u.u.u.u.u.u.u.u.u.u.u.u.u.u.u.u.u.u.u.u.u.u.u.u.u.u.u.u.u.u.u.#.#..... . .u.u.u.u.u.u.u.u.u.u.u.u.",
"u.u.u.u.u.u.u.u.u.u.u.u.u.u.u.u.u.u.u.u.u.u.u.u.u.u.u.u.u.u.u.u.u.u.u.u.u.u.u.u.S S Q Q u.u.u.u.M M u.u.u.u.u.u.u.u.u.u.u.u.u.u.u.u.u.u.u.u.u.u.u.u.u.u.u.u.u.u.u.u.u.u.u.u.u.u.u.u.u.u.u.u.u.u.u.u.u.u.u.u.u.u.u.u.u.u.u.u.#.#.u u # # u.u.u.u.u.u.u.u.u.u.u.u.",
"u.u.u.u.u.u.u.u.u.u.u.u.u.u.u.u.u.u.u.u.u.u.u.u.u.u.u.u.u.u.u.u.u.u.u.u.u.u.u.u.D D K _ u.u.u.u.B B u.u.u.u.u.u.u.u.u.u.u.u.u.u.u.u.u.u.u.u.u.u.u.u.u.u.u.u.u.u.u.u.u.u.u.u.u.u.u.u.u.u.u.u.u.u.u.u.u.u.u.u.u.u.u.u.u.u.u.u.u.u.u p = = u.u.u.u.u.u.u.u.u.u.u.u.",
"u.u.u.u.u.u.u.u.u.u.u.u.u.u.u.u.u.u.u.u.u.u.u.u.u.u.u.u.u.u.u.u.u.u.u.u.u.u.P L R R ! ! u.u.V V ` ` u.u.u.u.u.u.u.u.u.u.u.u.u.u.u.u.u.u.u.u.u.u.u.u.u.u.u.u.u.u.u.u.u.u.u.u.u.u.u.u.u.u.u.u.u.u.u.u.u.u.u.u.u.u.u.u.u.u.u.u.d h u u = = u.u.u.u.u.u.u.u.u.u.u.u.",
"u.u.u.u.u.u.u.u.u.u.u.u.u.u.u.u.u.u.u.u.u.u.u.u.u.u.u.u.u.u.u.u.u.u.u.u.u.u.T T Q R ) ) U U 6.6.X X m m u.u.u.u.u.u.u.u.u.u.u.u.u.u.u.u.u.u.u.u.u.u.u.u.u.u.u.u.u.u.u.u.u.u.u.u.u.u.u.u.u.u.u.u.u.u.u.u.u.u.u.u.u.u.u.u.d d t s r a = = u.u.u.u.u.u.u.u.u.u.u.u.",
"u.u.u.u.u.u.u.u.u.u.u.u.u.u.u.u.u.u.u.u.u.u.u.u.u.u.u.u.u.u.u.u.u.u.u.u.S S R R q.9.o o ` ` 4.9.t.t.y.y.+ +     u.u.u.u.u.u.u.u.u.u.u.u.u.u.u.u.u.u.u.u.u.u.u.u.u.u.u.u.u.u.u.u.u.u.u.u.u.u.u.u.u.u.u.u.u.u.u.u.u.u.u.u.f u a a g g = = u.u.u.u.u.u.u.u.u.u.u.u.",
"u.u.u.u.u.u.u.u.u.u.u.u.u.u.u.u.u.u.u.u.u.u.u.u.u.u.u.u.u.u.u.u.u.u.v n ^ ^ 4.4.w.w.1.8.9.9.0.q.9.9.r.r.3 3 . . u.u.u.u.u.u.u.u.u.u.u.u.u.u.8 8 u.u.u.u.6 6 u.u.u.u.u.u.u.u.u.u.u.u.h h u u u h u h u u u.u.u.u.u.u.p d a a a a @ @ u.u.u.u.u.u.u.u.u.u.u.u.u.u.",
"u.u.u.u.u.u.u.u.u.u.u.u.u.u.u.u.u.u.u.u.u.u.u.u.u.u.u.u.u.u.u.u.Z Z T T ) ) S L 9.9.9.9.6.6.9.q.9.9.o.o.+.+.u.u.u.u.u.u.u.u.u.u.u.u.u.u.u.u.f a y y u.u.a t 5 5 u.u.u.u.u.u.u.u.h h a u t u a t a t a a 9 9 d h h d u r f f @ # u.u.u.u.u.u.u.u.u.u.u.u.u.u.u.u.",
"u.u.u.u.u.u.u.u.u.u.u.u.u.u.u.u.u.u.u.u.u.u.u.u.u.u.u.u.u.u.n U R R R R R R R R E Y 3.q.X.$.X.o.%.+.u.u.u.u.u.u.u.u.u.u.u.u.u.u.u.u.u.u.u.u.a a w 0 1 1 a a 8 8 u.u.u.u.u.u.e e a a a a a a a a a a a a a a w q = ; = = $ $ u.u.u.u.u.u.u.u.u.u.u.u.u.u.u.u.u.u.",
"u.u.u.u.u.u.u.u.u.u.u.u.u.u.u.u.u.u.u.u.u.u.u.u.u.u.u.u.u.u.J n R T R R R R W W 4.4.w.q.8.3.#.%.u.u.u.u.u.u.u.u.u.u.u.u.u.u.u.u.u.u.u.u.u.u.a a a a a a a a u u 8 8 u.u.a a a a a a a f a a f a a a a a a p 1 1 u.u.u.u.u.u.u.u.u.u.u.u.u.u.u.u.u.u.u.u.u.u.u.u.",
"u.u.u.u.u.u.u.u.u.u.u.u.7.7.u.u.u.u.u.u.u.u.u.u.u.u.u.u.A A _ R R T R T _ _ <.<.r.r.9.9.o.o.u.u.u.u.u.u.u.u.u.u.u.u.u.u.u.u.u.u.u.u.u.u.u a a t ] ] a r a a f a u f w w a a a a t a a a a a t a f a a t a a 1 0 u.u.u.u.u.u.u.u.u.u.u.u.u.u.u.u.u.u.u.u.u.u.u.u.",
"u.u.u.u.u.u.u.u.u.u.u.u.2.2.u.u.u.u.u.u.u.u.u.u.u.u.n n ( ^ Q ! n n _ _ Q Q q.q.2.3.q.9.X.X.u.u.u.u.u.u.u.u.u.u.u.u.u.u.    u t a a t t a a O O t a a a 0 0 a a a a a a u a a a a a a a s s w w 7 2 a a a a a a 0 0 u.u.u.u.u.u.u.u.u.u.u.u.u.u.u.u.u.u.u.u.u.u.",
"u.u.u.u.u.u.u.u.u.u.,.,.S S u.u.u.u.u.u.u.u.u.u.u.u.) ) R R T T T R U H R R 9.9.8.8.X.o.u.u.u.u.u.u.u.u.u.u.u.u.u.u.u.u.p p s s a a p p a a a a a a a a a a 0 9 t a a a a u a t a a a a : : $ = * $ a a a a a f 9 0 u.u.u.u.u.u.u.u.u.u.u.u.u.u.u.u.u.u.u.u.u.u.",
"u.u.u.u.u.u.u.u.u.u.q.q.) ) U U u.u.u.u.u.u.u.u.L H ! R J n Q R K T A A q.q.0.8.X.$.E E u.u.u.u.u.u.u.u.u.u.u.u.u.u.u.u.u.u.2 2 / / } } a a a a a a a a 0 0 a a a a a a r r r r a a < < u.u.$ % $ = a u a a f a 0 9 u.u.u.u.u.u.u.u.u.u.u.u.u.u.u.u.u.u.u.u.u.u.",
"u.u.u.u.u.u.u.u.u.u.q.0.T T P P u.u.u.u.u.u.u.u.Q Q T E ) K k k R ) Y Q A A *.*.$.$.S S u.u.u.u.u.u.u.u.u.u.u.u.u.u.u.u.u.u.u.u.u.u.w w 9 9 0 0 9 9 9 9 u a u a a a a a r r r r a a < < u.u.& % = = a u a a f f 9 0 u.u.u.u.u.u.u.u.u.u.u.u.u.u.u.u.u.u.u.u.u.u.",
"u.u.u.u.u.u.u.u.u.u.<.;.7.7.' ' P P u.u.u.u.G G T T R R R R T R z z { { S S -.-.%.%.J J u.u.u.u.u.u.u.u.u.u.u.u.u.u.u.u.u.u.u.u.u.u.u.u.u.u.u.u.u.u.u.u.u.u.a s t t e e 0 0 - - : : u.u.u.u.u.u.u.u.% $ u.u.u.u.8 8 u.u.u.u.u.u.u.u.u.u.u.u.u.u.u.u.u.u.u.u.u.u.",
"u.u.u.u.u.u.u.u.u.u.u.u.;.&.9.8.~ ~ C C u.u.Y Y Q R R R T R ) ) l l =.=.H U F E u.u.U U u.u.u.u.u.u.u.u.u.u.u.u.u.u.u.u.u.u.u.u.u.u.u.u.u.u.$ $ = = ; = = $ * * w 0 a a e e u.u.u.u.u.u.u.u.u.u.u.u.& & u.u.u.u.8 8 u.u.u.u.u.u.u.u.u.u.u.u.u.u.u.u.u.u.u.u.u.u.",
"u.u.u.u.u.u.u.u.u.u.u.u.u.u.=.=.5.5._ _ I I J J R ) _ T R R ) ) c c >.>.O.O.P P u.u.J J u.u.u.u.u.u.u.u.u.u.u.u.u.u.u.u.u.u.u.u.u.u.$ $ % % u.u.u.u.u.u.> > , , , , , , u.u.u.u.u.u.u.u.u.u.u.u.% % # # u.u.i i u.u.u.u.u.u.u.u.u.u.u.u.u.u.u.u.u.u.u.u.u.u.u.u.",
"u.u.u.u.u.u.u.u.u.u.u.u.u.u.u.u.;.<.j j W W W ` Q ( Q ( Q Q x x T U N N u.u.u.u.[ [ u.u.{ { u.u.u.u.u.u.u.u.u.u.u.u.u.u.u.u.u.u.u.u.u.u.u.u.u.u.4 4 4 4 u.u.u.u.u.u.u.u.u.u.u.u.u.u.u.u.u.u.u.u.u.u.u.u.u.u.u.u.u.u.u.u.u.u.u.u.u.u.u.u.u.u.u.u.u.u.u.u.u.u.u.u."
};
