/* XPM */
static char *_3a8f8e3f4f146c2dff91b43b981636dm2FoNAYz9VjvyBQm[] = {
/* columns rows colors chars-per-pixel */
"32 32 165 2 ",
"   c #100707",
".  c #130708",
"X  c #120909",
"o  c #130909",
"O  c #130B0B",
"+  c #14090B",
"@  c #150A0A",
"#  c #150B0B",
"$  c #160B0D",
"%  c #140C0C",
"&  c #150D0D",
"*  c #160C0C",
"=  c #170D0C",
"-  c #160D0D",
";  c #170D0D",
":  c #170E0D",
">  c #160E0E",
",  c #170E0E",
"<  c #170F0E",
"1  c #170E0F",
"2  c #170F0F",
"3  c #190C0C",
"4  c #190D0D",
"5  c #1B0D0D",
"6  c #190D0E",
"7  c #180E0E",
"8  c #190E0E",
"9  c #180F0F",
"0  c #190F0F",
"q  c #1A0E0E",
"w  c #1B0E0E",
"e  c #1A0E0F",
"r  c #1B0E0F",
"t  c #1C0E0E",
"y  c #1C0F0F",
"u  c #1E0E0F",
"i  c #1F0F0F",
"p  c #1F120F",
"a  c #160F10",
"s  c #1A0E10",
"d  c #1B0E10",
"f  c #1B0F10",
"g  c #1C0F10",
"h  c #1F0F10",
"j  c #1A1111",
"k  c #1B1210",
"l  c #1C1010",
"z  c #1E1010",
"x  c #1F1010",
"c  c #1F1210",
"v  c #1E1012",
"b  c #1C1212",
"n  c #1F1410",
"m  c #1F1512",
"M  c #1F1414",
"N  c #1C1614",
"B  c #20120F",
"V  c #230F10",
"C  c #221112",
"Z  c #201212",
"A  c #211212",
"S  c #211312",
"D  c #221312",
"F  c #231312",
"G  c #221213",
"H  c #231313",
"J  c #241212",
"K  c #271313",
"L  c #201410",
"P  c #221410",
"I  c #211512",
"U  c #221412",
"Y  c #241413",
"T  c #271413",
"R  c #271513",
"E  c #271713",
"W  c #221314",
"Q  c #251214",
"!  c #241314",
"~  c #271316",
"^  c #211616",
"/  c #231616",
"(  c #231617",
")  c #271614",
"_  c #271416",
"`  c #271716",
"'  c #271617",
"]  c #271717",
"[  c #291313",
"{  c #291613",
"}  c #281414",
"|  c #2A1414",
" . c #281614",
".. c #2B1615",
"X. c #281416",
"o. c #281417",
"O. c #291716",
"+. c #2A1616",
"@. c #2B1717",
"#. c #2D1714",
"$. c #2F1416",
"%. c #2C1617",
"&. c #271814",
"*. c #281814",
"=. c #291916",
"-. c #2B1817",
";. c #2B1917",
":. c #29131B",
">. c #291618",
",. c #241818",
"<. c #261919",
"1. c #291A19",
"2. c #2A191A",
"3. c #281B1A",
"4. c #281B1B",
"5. c #2E1818",
"6. c #2E1919",
"7. c #2F1919",
"8. c #2E1A18",
"9. c #2E1B18",
"0. c #2F1B19",
"q. c #2F191A",
"w. c #2C1B1B",
"e. c #2E1B1B",
"r. c #2F1B1B",
"t. c #301515",
"y. c #301616",
"u. c #311717",
"i. c #351717",
"p. c #311817",
"a. c #311917",
"s. c #301B16",
"d. c #331719",
"f. c #31171A",
"g. c #301A1B",
"h. c #311B1B",
"j. c #331B1A",
"k. c #331A1B",
"l. c #321B1B",
"z. c #351818",
"x. c #341B1B",
"c. c #361A1A",
"v. c #321C1B",
"b. c #331E1A",
"n. c #321F1A",
"m. c #311B1C",
"M. c #311B1E",
"N. c #321C1C",
"B. c #331E1C",
"V. c #331F1C",
"C. c #321C1E",
"Z. c #321C1F",
"A. c #361D1D",
"S. c #381E1C",
"D. c #391F1C",
"F. c #381F1F",
"G. c #391F1F",
"H. c #3C1F1D",
"J. c #36201E",
"K. c #3C201D",
"L. c #382020",
"P. c #392120",
"I. c #3A2120",
"U. c #412421",
"Y. c #412522",
/* pixels */
") ! ) 6 2.a.h.h.J.h.9.b T ) ' ! | ! | s =.a.9.J.J.9.0.j ) ) ' ~ ",
"h y x 6 b.*.E *.=.E E 6 x h h h x j x = J.&.E E *.E | 6 x h h h ",
"y y = 6 { ) E P ) Z ) 6 x h h ~ h s = s | E &.Y P P &.6 h h h ' ",
"6 6 = o 6 = p : s s h 6 = $ O + 6 = = o s 6 s = x j x a $ $ + O ",
"T f.0.f.0.g.| = g.g.h.6.0.| ! s ) f.0.f.0.0.>.= g.g.M.0.6.$.Z h ",
"{ | | ) ! | Y o Z [ { ) Z Z h = | [ | ) [ ! C o Z ) T | Z Z h = ",
"} h | h x h x . Z y Z y 6 y h O ) h } V Z 6 V . Z y Z 6 6 6 h O ",
"6 6 6 s j = =   = = 6 y $ + 6 $ 6 6 6 6 h = =   3 3 = h $ O 6 O ",
"M.M.0.s w.C.Z.J.w.h.C.p 0.M.g.} C.0.M.s w.C.w.J.w.h.C.j 0.M.g.} ",
") ) C h w.,.4.3.3.w.2.6 ' | { } ' | Z s w.,.4.2.3.w.2.s } } } } ",
"Z x v s ,.Y :.,.( ( / O C v Z Z Z x C j =.Y :.,.&.Y ,.% Z Z Z Z ",
"j s x a 6 s s 6 s j : : j = = % = j a % a s s s s s s 6 6 6 6 + ",
"C.0.C.0.0.6.2.x | h.s Y.D.K.L.J.x.A.I.v 0.0.>.x { g.9.w.g.9.) 6 ",
"0.>.) >.' C 6 x ) P = I.| a % = a z.6.x ) Z 6 x { P { P T K p = ",
">.h C v h C C j K p = I.j = 6.$.y.= [ $ p K Z s K p p p B b P : ",
"$ . o O o o j = o o a K.g.* = % y.b.! + + + 6 = o o * 6 6 : = % ",
") K &.6 =.a.h.h.J.C.= G.s.s.% : s 9.p + =.a.9.J.J.9.w.x Y ' ) ~ ",
"h j x 6 J.*.E &.&.) = D.= #.g.C.= % P 6 J.&.E E E E | 6 P h h h ",
"y y : 6 { E =.Z P P a I.g.= = = = } C = | E &.Y P P &.6 h h h ' ",
"6 = =   p 3 s = x j = ) P N P b Z Z Z a s 6 s : x j x a $ $ + O ",
"} y.g.y.0.6.| = 0.M.+ + + 3 o + = = = a 0.6.| : g.g.M.0.6.| ! h ",
"} } $.| [ } C + Z ! T | T Z p = | | 6.! ! } C o Z ! ) | Z Z h = ",
") x ) x Z y h o P 6 P 6 6 6 h o ) h ) V Z 6 V . K 3 x s 6 6 h O ",
"6 6 6 6 s a = o = = = h $ O 6 $ 6 6 6 6 h 6 =   * 6 = h $ O 6 O ",
"M.M.e.s e.e.Z.A.w.A.C.x 0.w.M.} M.e.e.h w.C.w.J.w.h.M.j 0.M.g.} ",
") T C s e.,.4.2.3.4.2.6 | | ) | >.) C s w.,.4.2.3.w.2.s } } } } ",
"Z x C j ,.Y :.,.' ( Y * Y Z Z Z Z h Z j =.Y :.,.&.' Y O Z Z Z Z ",
"x s N = a s s s 6 s j 6 = a 6 o x s j a a s s s j 6 j s 6 6 6 + ",
"M.0.M.0.0.0.>.x ) g.a.w.9.0.=.6 C.0.M.0.0.0.>.x { g.9.w.g.9.) 6 ",
"6.>.) >.) Y s j { Z | P Z K Z a 0.~ >.! ) Z 6 x { P { P T K p = ",
">.h C v x C x x T p p p B B P = ' h C Z p K Z s K p p p B b P : ",
"$ o o % o o j = o o O 6 6 = = O $ o o $ + + 6 = o o * 6 6 : = % "
};
