/* XPM */
static char *_775a28b977b408dc4536927f64fa7fbvaZVzRriSPj2APGa[] = {
/* columns rows colors chars-per-pixel */
"32 32 164 2 ",
"   c #271614",
".  c #241314",
"X  c #271716",
"o  c #190D0E",
"O  c #2B1917",
"+  c #311917",
"@  c #2F1B19",
"#  c #331E1A",
"$  c #321F1A",
"%  c #331F1C",
"&  c #1C1212",
"*  c #241413",
"=  c #271416",
"-  c #281416",
";  c #1F0F10",
":  c #1C0F0F",
">  c #281814",
",  c #271713",
"<  c #271814",
"1  c #291916",
"2  c #281614",
"3  c #211212",
"4  c #1E0E0F",
"5  c #1C0E0E",
"6  c #170E0D",
"7  c #291613",
"8  c #211312",
"9  c #221412",
"0  c #130909",
"q  c #1B0E0F",
"w  c #1A0E0E",
"e  c #1B0E10",
"r  c #1C0F10",
"t  c #160B0D",
"y  c #14090B",
"u  c #281414",
"i  c #311717",
"p  c #2F1919",
"a  c #311817",
"s  c #2A1616",
"d  c #311B1B",
"f  c #2E1818",
"g  c #241212",
"h  c #2A1414",
"j  c #2B1717",
"k  c #271313",
"l  c #231313",
"z  c #221312",
"x  c #1F0F0F",
"c  c #1F1010",
"v  c #130708",
"b  c #1B0D0D",
"n  c #190D0D",
"m  c #130B0B",
"M  c #180E0E",
"N  c #100707",
"B  c #311B1E",
"V  c #301A1B",
"C  c #2E1B1B",
"Z  c #2F1B1B",
"A  c #321C1F",
"S  c #331E1C",
"D  c #321C1B",
"F  c #321C1E",
"G  c #1B1210",
"H  c #331A1B",
"J  c #271617",
"K  c #221213",
"L  c #2C1B1B",
"P  c #261919",
"I  c #281B1B",
"U  c #291A19",
"Y  c #281B1A",
"T  c #2A191A",
"R  c #271316",
"E  c #1B0F10",
"W  c #271717",
"Q  c #211616",
"!  c #29131B",
"~  c #241818",
"^  c #231617",
"/  c #231616",
"(  c #201212",
")  c #160F10",
"_  c #170E0F",
"`  c #1A0E10",
"'  c #1A0E0F",
"]  c #170E0E",
"[  c #160E0E",
"{  c #190F0F",
"}  c #170D0C",
"|  c #150D0D",
" . c #1A1111",
".. c #170F0F",
"X. c #311B1C",
"o. c #2F191A",
"O. c #321C1C",
"+. c #2E1919",
"@. c #2B1817",
"#. c #1E1012",
"$. c #331B1A",
"%. c #190E0E",
"&. c #412522",
"*. c #381E1C",
"=. c #3C201D",
"-. c #381F1F",
";. c #36201E",
":. c #361A1A",
">. c #361D1D",
",. c #392120",
"<. c #1F1414",
"1. c #2E1B18",
"2. c #2E1A18",
"3. c #291716",
"4. c #281417",
"5. c #1B0E0E",
"6. c #271413",
"7. c #160D0D",
"8. c #382020",
"9. c #291A16",
"0. c #2B1A16",
"q. c #2F1416",
"w. c #1C1010",
"e. c #231312",
"r. c #1F1210",
"t. c #291618",
"y. c #1E1010",
"u. c #1F120F",
"i. c #412421",
"p. c #311C1B",
"a. c #2C1617",
"s. c #301515",
"d. c #301616",
"f. c #291313",
"g. c #160C0C",
"h. c #391F1C",
"j. c #2D1916",
"k. c #301B16",
"l. c #34191B",
"z. c #251214",
"x. c #391F1F",
"c. c #321B1B",
"v. c #20120F",
"b. c #150B0B",
"n. c #3C1F1D",
"m. c #2D1714",
"M. c #221314",
"N. c #170D0D",
"B. c #3A2120",
"V. c #221112",
"C. c #271513",
"Z. c #211512",
"A. c #1C1614",
"S. c #1F1512",
"D. c #1F1410",
"F. c #221410",
"G. c #230F10",
"H. c #201410",
"J. c #150A0A",
"K. c #120909",
"L. c #190C0C",
"P. c #140C0C",
"I. c #170F0E",
"U. c #180F0F",
/* pixels */
"  . X o O + @ # $ % @ & * = X -   . X o O + @ # $ % @ & * = X - ",
"; : ; o # > , < 1 , 2 o 3 4 ; ; ; : ; o # > , < 1 , 2 o 3 4 ; ; ",
"4 5 6 o 7 , , 8 * 9 X o ; ; ; = 4 5 6 o 7 , , 8 * 9 X o ; ; ; = ",
"o 6 6 0 q w e 6 r r r o t t y y o 6 6 0 q w e 6 r r r o t t y y ",
"u i p a p p s 6 p d d f f s g e u i p a p p s 6 p d d f f s g e ",
"h u j u k u l 0 z u   - z 3 x 6 h u j u k u l 0 z u   - z 3 x 6 ",
"u c u ; 3 5 ; v z b 3 5 n 5 ; m u c u ; 3 5 ; v z b 3 5 n 5 ; m ",
"o o o w e M 6 N 6 6 6 e t m w m o o o w e M 6 N 6 6 6 e t m w m ",
"B V V e C Z A S C D F G p d H - B V V e C Z A S C D F G p d H - ",
"J   K e L P I U Y L T q - u u R J   K e L P I U Y L T q - u u R ",
"3 c 3 E W Q ! ~ ^ ^ / m l ( 3 3 3 c 3 E W Q ! ~ ^ ^ / m l ( 3 3 ",
"& q G ) _ ` ' q q e ] [ { } [ | |  ...| _ ` ' q q e e o o M 6 0 ",
"X.o.O.p +.+.@.#.2 $.%.&.*.=.-.;.:.>.,.<.+.+.@.#.2 $.1.1.2.1.3.w ",
"o.4.X - X l 5.G 6.8 7.8...| 9.0.| ..q.w.X l 5.G 6.8 2 e.e.k r.6 ",
"t.y.K ( ; . ( r k u...i...p.a.s.d...f.g.; . ( r k u.u.u.u.u.9 6 ",
"t 0 0 m 0 0 w 6 0 0 ..h.| j.k.l.s...z.g.0 0 w 6 0 0 m o o 6 6 m ",
"  . X o O + @ # $ % | x.| k.| | c.| v.b.O + @ # $ % @ & * = X - ",
"; : ; o # > , < 1 , | n.| m...| 2 | M.N.# > , < 1 , 2 o 3 4 ; ; ",
"4 5 6 o 7 , , 8 * 9 ..B.| ....| | | V.N.7 , , 8 * 9 X o ; ; ; = ",
"o 6 6 0 q w e 6 r r 7.C.Z.A.S.D.F.G.H.] q w e 6 r r r o t t y y ",
"u i p a p p s 6 p d J.K.J.L.0 b.P.I.U.[ p p s 6 p d d f f s g e ",
"h u j u k u l 0 z u   - z 3 x 6 h u j u k u l 0 z u   - z 3 x 6 ",
"u c u ; 3 5 ; v z b 3 5 n 5 ; m u c u ; 3 5 ; v z b 3 5 n 5 ; m ",
"o o o w e M 6 N 6 6 6 e t m w m o o o w e M 6 N 6 6 6 e t m w m ",
"B V V e C Z A S C D F G p d H - B V V e C Z A S C D F G p d H - ",
"J   K e L P I U Y L T q - u u R J   K e L P I U Y L T q - u u R ",
"3 c 3 E W Q ! ~ ^ ^ / m l ( 3 3 3 c 3 E W Q ! ~ ^ ^ / m l ( 3 3 ",
"& q G ) _ ` ' q q e e o o M 6 0 & q G ) _ ` ' q q e e o o M 6 0 ",
"X.o.O.p +.+.@.#.2 $.1.1.2.1.3.w X.o.O.p +.+.@.#.2 $.1.1.2.1.3.w ",
"o.4.X - X l 5.G 6.8 2 e.e.k r.6 o.4.X - X l 5.G 6.8 2 e.e.k r.6 ",
"t.y.K ( ; . ( r k u.u.u.u.u.9 6 t.y.K ( ; . ( r k u.u.u.u.u.9 6 ",
"t 0 0 m 0 0 w 6 0 0 m o o 6 6 m t 0 0 m 0 0 w 6 0 0 m o o 6 6 m "
};
