/* XPM */
static char *_3249697ec8d4128997240512982f3703IodygbujCAGT5Wb[] = {
/* columns rows colors chars-per-pixel */
"32 32 105 2 ",
"   c #100707",
".  c #130708",
"X  c #130909",
"o  c #130B0B",
"O  c #14090B",
"+  c #160B0D",
"@  c #170E0D",
"#  c #170E0F",
"$  c #190D0D",
"%  c #1B0D0D",
"&  c #190D0E",
"*  c #180E0E",
"=  c #1A0E0E",
"-  c #1B0E0E",
";  c #1A0E0F",
":  c #1B0E0F",
">  c #1C0E0E",
",  c #1C0F0F",
"<  c #1E0E0F",
"1  c #1F0F0F",
"2  c #1F120F",
"3  c #160F10",
"4  c #1A0E10",
"5  c #1B0E10",
"6  c #1B0F10",
"7  c #1C0F10",
"8  c #1F0F10",
"9  c #1B1210",
"0  c #1E1010",
"q  c #1F1010",
"w  c #1F1210",
"e  c #1E1012",
"r  c #1C1212",
"t  c #201212",
"y  c #211212",
"u  c #211312",
"i  c #221312",
"p  c #231312",
"a  c #221213",
"s  c #231313",
"d  c #241212",
"f  c #271313",
"g  c #221412",
"h  c #241413",
"j  c #271413",
"k  c #271713",
"l  c #241314",
"z  c #271316",
"x  c #211616",
"c  c #231616",
"v  c #231617",
"b  c #271614",
"n  c #271416",
"m  c #271716",
"M  c #271617",
"N  c #271717",
"B  c #291613",
"V  c #281414",
"C  c #2A1414",
"Z  c #281614",
"A  c #281416",
"S  c #281417",
"D  c #291716",
"F  c #2A1616",
"G  c #2B1717",
"H  c #271814",
"J  c #281814",
"K  c #291916",
"L  c #2B1817",
"P  c #2B1917",
"I  c #29131B",
"U  c #291618",
"Y  c #241818",
"T  c #261919",
"R  c #291A19",
"E  c #2A191A",
"W  c #281B1A",
"Q  c #281B1B",
"!  c #2E1818",
"~  c #2E1919",
"^  c #2F1919",
"/  c #2E1A18",
"(  c #2E1B18",
")  c #2F1B19",
"_  c #2F191A",
"`  c #2C1B1B",
"'  c #2E1B1B",
"]  c #2F1B1B",
"[  c #311717",
"{  c #311817",
"}  c #311917",
"|  c #301A1B",
" . c #311B1B",
".. c #331B1A",
"X. c #331A1B",
"o. c #321C1B",
"O. c #331E1A",
"+. c #321F1A",
"@. c #311B1C",
"#. c #311B1E",
"$. c #321C1C",
"%. c #331E1C",
"&. c #331F1C",
"*. c #321C1E",
"=. c #321C1F",
/* pixels */
"b l D & L } | O.+.&.' e g b D S B l D & L } O.O.+.+.^ 9 l S b D ",
"8 , , & O.J k k H j J & a 8 8 , 8 & 8 & O.J j k J H D & a , 8 8 ",
", , @ & B J k g f g D & e , 8 S , , @ & J J b g b a b & 8 8 8 l ",
"& & @ X , & & @ 5 2 & & + + X + & @ @ X & & 5 @ 5 9 9 & + + O + ",
"C [ | [ ^ ^ D @ L O.| ! ! D f & S [ G [ | | J @ ^ | *.G G D a & ",
"C C D C j B s . a j D S a a , @ C C ! B f C g . a C B D f a , & ",
"f , D , a & 8 . g % a , & , 8 + C , C , a & 1 . a % a & & & 8 X ",
"& & & & 5 @ @ . @ @ & & + X , X & & & & & & & . @ @ @ 8 X @ & + ",
"*._ *.& _ ' =.*.' O.*.9 G *.X.S #._ *.5 _ O.*.*.' O.*.e ^ | X.D ",
"D b s 5 ` Y Q Q W ' Q & D j C l M b s 5 ` Y Q Q Q Q Q 5 b l C S ",
"a 8 a 5 b Y I Y Y Y b o g a a a s 8 e 9 M r I Y b Y c X a a a a ",
"9 & 9 3 3 5 & 8 4 5 5 @ & @ @ X 9 5 9 3 5 9 @ 2 & 5 5 & & @ &   ",
"*.^ *.^ ^ ^ G e l X.( ( L O.J & _ _ *.^ ^ ^ J e j O.( ' L L J & ",
"^ S M b b s & 9 C a j g a j 2 @ _ M b I D g & e j g B g j j 2 2 ",
"U 8 s e e s a 9 f 2 2 2 2 2 g @ D , a e a a a & f 2 2 2 2 2 e @ ",
"+ X X o X X & @ . X o & & @ @ o + X X @ X X & @ X X o & & @ @ o ",
"j f H & J } ' O.+.&.^ e f S D S b l b & J | } +.+.&.^ 9 l l D l ",
"e , e & &.k k k J k b & a , , 1 8 5 e & O.J J J J J b & a 8 8 8 ",
", , @ & B J B g b g D & , 1 1 S , & & & D j j a j g b 4 8 8 8 U ",
"@ % & X , & & @ 9 5 , & + + O O & @ @ X & @ 2 @ 2 5 9 @ + + . + ",
"f [ } [ ^ ^ D & ^ | O.G ! D f & B [ L [ | } D & | | *.G G D f 5 ",
"B S D f f B a X a l D S a a , @ C S ! S f f a X a f B D l a , @ ",
"S 8 D 1 a , 1   a % a , & , , @ C 1 B 1 a , 2 . a % e , & & 8 X ",
"& & & & & & &   @ @ & , @ X & X & & & & & & @   @ @ @ 8 @ X & + ",
"*.| ^ 5 ' *.*.*.| O.*., ^ | | S *.^ *.5 ^ *.*.O.^ O.*.2 ^ | X.D ",
"b B a 5 ` Y W W Q Q Q , S S C b M j a 5 ` Y Q Q Q Q Q 5 l S S l ",
"a 8 a 5 Y r U M c Y c @ f a a e a 8 e 9 Y c I Y b c c o g e a a ",
"9 5 9 3 9 5 5 5 , & & & @ @ @ . 9 5 9 3 @ 5 5 & 5 5 5 & & @ % . ",
"| | *.G ^ ^ D 8 j O.L L L ' J & *.^ *.^ ^ ^ Q 8 b O.( ( L ( J & ",
"| I D D M c & 9 j g J j j j e @ ^ S D l H a & 2 f g k g j j e & ",
"D , s e 8 l a 9 j 2 2 2 2 2 a @ M 8 s e e j e 8 f 2 e 2 2 2 g 2 ",
"+ X X o X X & @ o . o & & @ @ o + X X @ X X & @ X X X @ @ @ @ X "
};
