/* XPM */
static char *b37c706b295949b3d639eeaed1a220b98pn8AoU0e7m1TeCT[] = {
/* columns rows colors chars-per-pixel */
"32 32 163 2 ",
"   c #100707",
".  c #130708",
"X  c #120909",
"o  c #130909",
"O  c #130B0B",
"+  c #14090B",
"@  c #150A0A",
"#  c #150B0B",
"$  c #160B0D",
"%  c #140C0C",
"&  c #150D0D",
"*  c #160C0C",
"=  c #170D0C",
"-  c #160D0D",
";  c #170D0D",
":  c #170E0D",
">  c #160E0E",
",  c #170E0E",
"<  c #170F0E",
"1  c #170E0F",
"2  c #170F0F",
"3  c #190C0C",
"4  c #190D0D",
"5  c #1B0D0D",
"6  c #190D0E",
"7  c #180E0E",
"8  c #190E0E",
"9  c #180F0F",
"0  c #190F0F",
"q  c #1A0E0E",
"w  c #1B0E0E",
"e  c #1A0E0F",
"r  c #1B0E0F",
"t  c #1C0E0E",
"y  c #1C0F0F",
"u  c #1E0E0F",
"i  c #1F0F0F",
"p  c #1F120F",
"a  c #160F10",
"s  c #1A0E10",
"d  c #1B0E10",
"f  c #1B0F10",
"g  c #1C0F10",
"h  c #1F0F10",
"j  c #1A1111",
"k  c #1B1210",
"l  c #1C1010",
"z  c #1E1010",
"x  c #1F1010",
"c  c #1F1210",
"v  c #1E1012",
"b  c #1C1212",
"n  c #1F1410",
"m  c #1F1512",
"M  c #1F1414",
"N  c #1C1614",
"B  c #20120F",
"V  c #230F10",
"C  c #221112",
"Z  c #201212",
"A  c #211212",
"S  c #211312",
"D  c #221312",
"F  c #231312",
"G  c #221213",
"H  c #231313",
"J  c #241212",
"K  c #271313",
"L  c #201410",
"P  c #221410",
"I  c #211512",
"U  c #221412",
"Y  c #241413",
"T  c #271413",
"R  c #271513",
"E  c #271713",
"W  c #221314",
"Q  c #251214",
"!  c #241314",
"~  c #271316",
"^  c #211616",
"/  c #231616",
"(  c #231617",
")  c #271614",
"_  c #271416",
"`  c #271716",
"'  c #271617",
"]  c #271717",
"[  c #291313",
"{  c #291613",
"}  c #281414",
"|  c #2A1414",
" . c #281614",
".. c #281416",
"X. c #281417",
"o. c #291716",
"O. c #2A1616",
"+. c #2B1717",
"@. c #2F1416",
"#. c #2D1716",
"$. c #2C1617",
"%. c #271814",
"&. c #281814",
"*. c #291916",
"=. c #2B1817",
"-. c #2B1917",
";. c #29131B",
":. c #291618",
">. c #241818",
",. c #261919",
"<. c #291A19",
"1. c #2A191A",
"2. c #281B1A",
"3. c #281B1B",
"4. c #2E1818",
"5. c #2E1919",
"6. c #2F1919",
"7. c #2E1A18",
"8. c #2E1B18",
"9. c #2F1B19",
"0. c #2F191A",
"q. c #2C1B1B",
"w. c #2E1B1B",
"e. c #2F1B1B",
"r. c #301515",
"t. c #301616",
"y. c #311717",
"u. c #351717",
"i. c #311817",
"p. c #311917",
"a. c #301B16",
"s. c #331719",
"d. c #311B19",
"f. c #301A1B",
"g. c #311B1B",
"h. c #331B1A",
"j. c #331A1B",
"k. c #321B1B",
"l. c #341B1B",
"z. c #361A1A",
"x. c #321C1B",
"c. c #331E1A",
"v. c #321F1A",
"b. c #311B1C",
"n. c #311B1E",
"m. c #321C1C",
"M. c #331E1C",
"N. c #331F1C",
"B. c #321C1E",
"V. c #321C1F",
"C. c #361D1D",
"Z. c #381E1C",
"A. c #391F1C",
"S. c #381F1F",
"D. c #391F1F",
"F. c #3C1F1D",
"G. c #36201E",
"H. c #3C201D",
"J. c #382020",
"K. c #392120",
"L. c #3A2120",
"P. c #412421",
"I. c #412522",
/* pixels */
") ! ) 6 1.p.d.d.G.d.q.x P ) ' X.) ! ) f -.a.d.d.G.G.5.x W ) ) ' ",
"h y x 6 c.&.%.&.1.) &.6 S h h V h f h 6 d.%.%.%.%.%.) 6 W x h h ",
"y y = 6 { %.%.P W P ) 6 h h h ! h f = 6 | %.%.W P P ) $ h h h X.",
"6 6 = o 6 6 f = f h j 6 $ $ O O 6 = = o f 6 f = p f j f $ $ + O ",
") s.5.s.d.d.| = d.n.d.s.5.| ! f ! s.d.s.5.5.| = 5.d.n.5.$.| ! h ",
"| ) | ) ! | W o S | ) ! S S h = | [ | ) ! ) W . S ) R | W S h = ",
"! V | h S f x . P 6 S 6 6 y p o ) h | h S y h . S y x f 6 6 h O ",
"6 6 6 6 f = = . = = 6 f $ @ 6 @ 6 6 6 6 h = = . = 6 = h $ O 6 O ",
"n.e.n.6 e.e.V.n.e.d.n.N d.n.j.;.n.n.e.f q.q.n.n.5.n.n.x 5.n.d.| ",
"' ) S h e.,.3.,.3.q.1.y ! ) | ! ! ) W f q.2.3.1.3.q.1.f ) ) ! X.",
"x V S f ) ^ ;.>.,.W W % W x W M S V S f &.^ ;.>.W W ( o W x W S ",
"b 6 j a a f 6 f f j = < f $ = = = j a % f f = f x j j 6 6 6 6 . ",
"n.5.n.5.5.5.1.x ) d.6 P.Z.H.J.N.j.N.K.W 5.5.1.h | d.8.q.q.#.&.p ",
"5.:.) :.) ) 6 x | S = K.= a = = a = $.h ) W y p ) P { P R K x = ",
":.h W x h W x j K p = P.#.a $.r.@.= | $ x W x x K p p p N x P = ",
"$ o o O o o f = o o a G.d.$ = a r.j.! $ o o f = o o o 6 6 a = % ",
") ! %.6 &.d.d.d.v.G.6 G.q.% p 6 n.8.B % 8.p.q.d.G.G.q.x W ) ' ) ",
"h f x 6 N.&.%.%.%.| = G.d.= r.c.{ = S = d.%.&.&.&.P | 6 P h h h ",
"h 6 = 6 | &.%.S P W a K.= = % % = $ S 6 | %.%.W %.P %.6 h h h X.",
"6 6 = @ y 6 f = x j = ) P N N p B S p 6 f 6 f = p 6 j 6 $ $ + O ",
"{ r.d.d.5.d.| = 5.n.@ o @ 3 . % = = f = 5.5.| = 5.d.n.5.$.| ! h ",
"| ! | | K [ W o P ) | ! S S i 6 | ) :.) ! | W o S ) ) | W S h = ",
") h | h S y y @ S 6 S y 6 y x O ) h | h S f h . S y x f 6 6 h O ",
"6 6 6 f 6 6 6   6 = = f $ % 6 @ 6 6 6 6 h = =   = 6 = h $ O 6 O ",
"n.e.e.f e.e.V.n.e.n.n.j 5.q.j.;.n.d.n.f q.q.V.n.5.n.n.j 5.n.d.| ",
"' ) W h 1.' 3.3.3.e.1.p | { ! ) ' R S f q.2.3.1.3.q.1.f | ) ! X.",
"S h x j ' M :.' W ^ ( O W x W S S h S f &.^ :.' W W >.% W S S S ",
"x f j a a f f f f 6 p 6 6 6 = o f f j a a h 6 6 x f f = 6 6 6 . ",
"n.e.n.5.5.5.1.x R d.q.#.5.5.%.f n.5.d.d.5.5.1.h | d.a.q.5.5.&.6 ",
"$.:.%.| ' W y j K S { R P ) x < 5.;.' | | S 6 N ) P { P S [ N 6 ",
":.h W x S P S 6 R p B B x N W = :.x W x h ! S y ! S p p p p K % ",
"$ @ o O . @ 6 6 o o @ 6 6 = = O $ o o O o o 6 = o o o 6 % p % % "
};
