/* XPM */
static char *result[] = {
/* columns rows colors chars-per-pixel */
"32 32 6 1 ",
"  c gray21",
". c #434343",
"X c #545252",
"o c gray38",
"O c #707276",
"+ c #848484",
/* pixels */
"..  .. . . .. ...   ..  X.X.... ",
"ooX ++Oo +oOo.oooXX ++O ..   Oo.",
"XX. +OOX +oXX.XXX.. +OO.ooX +XX.",
"X.. +OOX +ooX.X.... +OO.XX. +oX.",
"... OooX OXXX ..... Ooo.X.. OXX ",
"    ...  ..         ... ... .   ",
"++Oo +Oo XX.XXX.++O+OOO.  ..oXX.",
"OOoo OXX.X....X.OOoOooXX.ooXX.X.",
"OoOX oXX.XXX... OoOoooXX.XXX... ",
"    ...    ....  .. oXXX X.X... ",
"OooX O+OooX O++X.XX....    ..   ",
"oXX. OooXX. Ooo. X. O++OooX OOoo",
"XX.. ooXX.. ooo. .. OoooXX. oooo",
"..  .....  ...      oooXX.. ... ",
"Xoooooo.XXX. ooXXoo... ..  . ooX",
"oooXXXX.XX.. oXXoooXXXX.XX.. oXX",
"..  ...  .  .  .. ..  . ..  ....",
"ooX ++Oo OOooX +OoOOo +++++.oooo",
"... +OXX OXXX. OoooXX +Oooo.X...",
"... +OoX oX.X. OooXoX +oOoo.....",
"    OoXX o.... OXXXXX OoXXX     ",
"+O+ ..   ..    .  .   .  .. XX. ",
"++O+OOOo XX.XXX.+OOo +Oo XX.X.X.",
"OOoOooXX.X....X.OoXX.OoX.X....X.",
"OoOoooXX.XXX... OoXX.oXX.XXX... ",
" .. ...   ..   ..... ... ...    ",
".XX. ++oX.++Oo.XXXX. O++O+++OooX",
" X.. OoX. OoXX X.... OoooooooXX.",
" ... o... ooX. ..... ooooXXXXX..",
"    ... . ..   ...  ... ..  ..  ",
"Xoooooo.XXX. ooooX.oooX.ooXX ooX",
"oooXXXX.XX.. oXXX..oXX..oX.. oXX"
};
