/* XPM */
static char *result[] = {
/* columns rows colors chars-per-pixel */
"32 32 3 1 ",
"  c #484848",
". c #5A5A5A",
"X c None",
/* pixels */
"XXX ..  .. .. ...   ..  ..   XXX",
"XXX XXXXXXXXX.XXXXX XXXXXXXX.XXX",
"XXX XXXXXXXXX.XXXXX XXXXXXXX.XXX",
"XXX XXXXXXXXX.XXXXX XXXXXXXX.XXX",
"XXX XXXXXXXXX XXXXX XXXXXXXX.XXX",
"XXX ...  ..         ...  .. .  X",
"XXXXXXXX XXXXXX.XXXXXXXX XXXXX.X",
"XXXXXXXX.XXXXXX.XXXXXXXX.XXXXX.X",
"XXXXXXXX.XXXXXX XXXXXXXX.XXXXX X",
"XXX.... ....     .. .... ....  X",
"XXX XXXXXXXXXXXX.XXX XXXXXXXXXXX",
"XXX XXXXXXXXXXXX XXX XXXXXXXXXXX",
"XXX XXXXXXXXXXXX XXX XXXXXXXXXXX",
"XXX... ..   ..      ... ..   XXX",
"XXXXXX..XXXX XXXXXXXXXX.XXXX XXX",
"XXXXXX..XXXX XXXXXXXXXX.XXXX XXX",
"XX ..  ..    .. ..  ..  ..  .XXX",
"XX XXXXXXXXXXXXXXXX XXXXXXX.XXXX",
"XX XXXXXXXXXXXXXXXX XXXXXXX.XXXX",
"XX XXXXXXXXXXXXXXXX XXXXXXX.XXXX",
"XX XXXXXXXXXXXXXXXX XXXXXXX XXXX",
"XX ...  ..  .       ...  ..    X",
"XXXXXXXX XXXXXX.XXXXXXXX XXXXX.X",
"XXXXXXXX.XXXXXX.XXXXXXXX.XXXXX.X",
"XXXXXXXX.XXXXXX XXXXXXXX.XXXXX X",
"XXXX.... .     ...  .... ...   X",
"XXXX XXXXXXXXX.XXXXX XXXXXXXX.XX",
"XXXX XXXXXXXXX XXXXX XXXXXXXX.XX",
"XXXX XXXXXXXXX XXXXX XXXXXXXX.XX",
"XXXX... . ..        ... ..  ..XX",
"XXXXXXX.XXXX XXXXXXXXXX.XXXX XXX",
"XXXXXXX.XXXX XXXXXXXXXX.XXXX XXX"
};
