/* XPM */
static char *result[] = {
/* columns rows colors chars-per-pixel */
"32 32 7 1 ",
"  c #2B3E16",
". c #2F4517",
"X c #375A15",
"o c #457616",
"O c #528919",
"+ c #67A124",
"@ c None",
/* pixels */
"@@@@@@@@@@@@@@@@@@@@@@@@@@@@@@@@",
"@@@@@@@@@@@@@@@@@@@@@@@@@@@@@@@@",
"@@@@@@@@@@@@@@@@@@@@@@@@@@@@@@@@",
"@@@@@@@@@@@@@@@@@@@@@@@@@@@@@@@@",
"@@@@@@@@@@@@@@@@@@@@@@@@@@@@@@@@",
"@@@@@@@@@@@@@@@@@@@@@@@@@@@@@@@@",
"@@@@@@@@@@@@@@@@@@@@@@@@@@@@@@@@",
"@@@@@@@@@@@@@@@@@@@@@@@@@@@@@@@@",
"@@@@@@@@@@@@@@@@@@@@@@@@@@@@@@@@",
"@@@@@@@@@@@@@@@@@@@@@@@@@@@@@@@@",
"@@@@@@@@@@@@@@@@@@@@@@@@@@@@@@@@",
"@@@@@@@@@@@@@@@@@@@@@@@@@@@@@@@@",
"@@@@@@@@@@@@@@@@@@@@@@@@@@@@@@@@",
"@@@@@@@@@@@@@@@@@@@@@@@@@@@@@@@@",
"@@@@@@@@@@@@@@@@@@@@@@@@@@@@@@@@",
"@@@@@@@@@@@@@@@@@@@@@@@@@@@@@@@@",
"@@@@@@@@@@@@@@@@@@@@@@@@@@@@@@@@",
"@@@@@@@@@@@@@@@@@@@@@@@@@@@@@@@@",
"@@@@@@@@@@@@@@@@@@@@@@@@@@@@@@@@",
"@@@@@@@@@@@@@@@@@@@@@@@@@@@@@@@@",
"@@@@@@@@@@@X@X.XOO+OX@@@@@@@@@@@",
"@@@@@@@@@@oOOOooX+.+OXo@@@@@@@@@",
"@@@@@@@@@o++O+oOXO.XXX+O@@@@@@@@",
"@@@@@@@@@+O+O+.X@XooOOX+@@@@@@@@",
"@@@@@@@@@O@+O+@@@OO+o+@O@@@@@@@@",
"@@@@@.. @@+O+o+..X+X+o+@@+O+@@@@",
"@@@@.@ ..X+O+XO...O.. O@+O+o+@@@",
"@@@@@@X@.XOOOo.XX... ..@+O+@O@@@",
"@@@@+o+.+X.Xoo.XX.@@X@.XO@O@@@@@",
"@@@+O++OO.O.O.@X@o+o+.+X.@o@@@@@",
"@@@O@+O+@.O@O@@.@+O++Oo.@.@@@@@@",
"@@@@@O@O@@X  .@@@OX+O+o.@@@@@@@@"
};
