/* XPM */
static char *result[] = {
/* columns rows colors chars-per-pixel */
"32 32 9 1 ",
"  c #2B3E16",
". c #2F4517",
"X c #375A15",
"o c #457616",
"O c #9F4E0B",
"+ c #AC5712",
"@ c #528919",
"# c #67A124",
"$ c None",
/* pixels */
"$$$$$$$$$$$$$$$$$$$$$$$$$$$$$$$$",
"$$$$$$$$$$$$$$$$$$$$$$$$$$$$$$$$",
"$$$$$$$$$$$$$$$$$$$$$$$$$$$$$$$$",
"$$$$$$$$$$$$$$$$$$$$$$$$$$$$$$$$",
"$$$$$$$$$$$$$$$$$$$$$$$$$$$$$$$$",
"$$$$$$$$$$$$$$$$$$$$$$$$$$$$$$$$",
"$$$$$$$$$$$$$$$$$$$$$$$$$$$$$$$$",
"$$$$$$$$$$$$$$$$$$$$$$$$$$$$$$$$",
"$$$$$$$$$$$$$$$$$$$$$$$$$$$$$$$$",
"$$$$$$$$$$$$$$$$$$$$$$$$$$$$$$$$",
"$$$$$$$$$$$$$$$$$$$$$$$$$$$$$$$$",
"$$$$$$$$$$$$$$$$$$$$$$$$$$$$$$$$",
"$$$$$$$$$$$$$$$$$$$$$$$$$$$$$$$$",
"$$$$$$$$$$$X$X.X@@#@X$$$$$$$$$$$",
"$$$$$$$$$$o@@@ooX#.#@Xo$$$$$$$$$",
"$$$$$$$$$o##@#o@X@.XXX#@$$$$$$$$",
"$$$$$$$$$#@#@#.XOXoo@@X#$$$$$$$$",
"$$$$$$$$$@$#@#$OO@@#o#$@$$$$$$$$",
"$$$$$.. $$#@#o#..X#X#o#$$#@#$$$$",
"$$$$.$ ..X#@#X@...@.. @$#@#o#$$$",
"$$$$$$X$.X@@@o.XX... ..$#@#$@$$$",
"$$$$#o#.#X.Xoo.XX.$$X+.X@+@$$$$$",
"$$$#@##@@.@.@.$XOo#o#.#X.$o$$$$$",
"$$$@$#@#O.@$@$$.O#@##@o.$.$$$$$$",
"$$$$$@$@O+X  .$OO@X#@#o.$$$$$$$$",
"$$$$.o.$$X.o.#X..+X@X@XX$  .$$$$",
"$$$.. X$$@o#X#@XX..o.@OX.$.$X$$$",
"$$$X$ ..$#@o@#+XX.. XO$$$$X$$$$$",
"$$$$$X$.#@##@@+.OX$ ..$#@o$$$$$$",
"$$$$$X$$@@#@#$O+O$$X$.#@##@$$$$$",
"$$$$$$$$o$@$o$$+O$$X$$@@#@#$$$$$",
"$$$$$$$$$$o$$$+OOO$$$$o$@$o$$$$$"
};
