/* XPM */
static char *result[] = {
/* columns rows colors chars-per-pixel */
"32 32 18 1 ",
"  c #360000",
". c #372E10",
"X c #5B0000",
"o c #7D0004",
"O c #65531B",
"+ c #7E6820",
"@ c #AF0005",
"# c #E65B38",
"$ c #B19537",
"% c #DB9A1A",
"& c #E9BF39",
"* c #C1B15F",
"= c #898989",
"- c #A7A7A7",
"; c gray",
": c #D7CD93",
"> c gray86",
", c None",
/* pixels */
",,,,,,,,,,,,,,,,,,,,,,,,,,,,,,,,",
",,,,,,,,,,,,,,,,,,,,,,,,,,,,,,,,",
",,,,,,,,,,,,,,,,,,,,,,,,,,,,,,,,",
",,,,,,,,,,,,,,,,,,,,,,,,,,,,,,,,",
",,,,,,,,,,,,,,,,,,,,,,,,,,,,,,,,",
",,,,,,,,,,,,,,,,,,,,,,,,,,,,,,,,",
",,,,,,,,,,,,,,,,,,,,,,,,,,,,,,,,",
",,,,,,,,,,,,,,,,,,,,,,,,,,,,,,,,",
",,,,,,,,,,,,,,,,,,,,,,,,,,,,,,,,",
",,,,,,,,,,,,,,,,,,,,,,,,,,,,,,,,",
",,,,,,,,,,,,,,,,,,,,,,,,,,,,,,,,",
",,,,,,,,,,,,,,,,,,,,,,,,,,,,,,,,",
",,,,,,,,,,,,,,,,,,,,,,,,,,,,,,,,",
",,,,,,,,,,,,,,,,,,,,,,,,,,,,,,,,",
",,,,,,,,,,,,,,,,,,,,,,,,,,,,,,,,",
",,,,,,,,,,,,,,,,,,,,,,,,,,,,,,,,",
",,,,,,,,,,,.O++$:*$+O,,,,,,,,,,,",
",,,,,,,,,,, Xooo@@ooX,,,,,,,,,,,",
",,,,,,,,,, Xooo@@@@oXX,,,,,,,,,,",
",,,,,,,,,, XXoo;>@ooX ,,,,,,,,,,",
",,,,,,,,,, XXo=o@;ooX ,,,,,,,,,,",
",,,,,,,,,, XXo=o@;ooX ,,,,,,,,,,",
",,,,,,,,,, XX=oo&@-oX ,,,,,,,,,,",
",,,,,,,,,, XX=o&%@-oX ,,,,,,,,,,",
",,,,,,,,,, X=oo%@@o-X ,,,,,,,,,,",
",,,,,,,,,, X=oo&#@o-X ,,,,,,,,,,",
",,,,,,,,,, =Xo%#%#oo= ,,,,,,,,,,",
",,,,,,,,,, =Xoo%#@oo= ,,,,,,,,,,",
",,,,,,,,,, ==--;>;--= ,,,,,,,,,,",
",,,,,,,,,,  XXoo@ooX  ,,,,,,,,,,",
",,,,,,,,,,==--;;>;;-==,,,,,,,,,,",
",,,,,,,,,,,==--;;;--=,,,,,,,,,,,"
};
