/* XPM */
static char *e0c9bfab92364770ac92b92ee20b4286DdXPoPf0zSPOu1fp[] = {
/* columns rows colors chars-per-pixel */
"32 32 5 1 ",
"  c None",
". c #0E0E0E",
"X c #131313",
"o c gray",
"O c gray86",
/* pixels */
" OOOOOO OOOOOOOOOOOOOOOOOOOO OOO",
" O.XX.OOOXX..O.XXXOO.XXXXO.O OXO",
" oXooO.OXoooXoXooOXooo.oOoXOOoXO",
"OoXOO.Oo.OOXOo.O oOOOo.OOo.XXXOO",
"OXOOo.OXOOoXOXOO    O.OOOXoooXO ",
"oXO o.o.XX.OoXO     o.O oXO o.O ",
"oOO oOooooOOoOO     oOO oOO oOO ",
"                                ",
"  OOOOOOOOOOOOOOOOOOOOOOOOOO OOO",
" OOXXXXOOXX..OOXOO.O.XXXXO.O OXO",
" OXoooOOXoooXOXOOoXooo.oOoXOOoXO",
" o.XXXOo.OOXOo.OOXOOOo.OOo.XXXOO",
"OooooXOXOOoXOXOOoXO O.OOOXoooXO ",
"OXXXXOo.XX.OoOXX.OO o.O oXO o.O ",
"ooooOOooooOO oooOO  oOO oOO oOO ",
"                                ",
"     OOOOOOOOOOOOOOOOOOOOOOOO   ",
"    OOXXXXOOXXX.OOXXXXO.XXXXO   ",
"    OXoooOOXoooXOXoooOooo.oOO   ",
"   Oo.XXXOo.XXXOo.XXXO OoXO     ",
"   O.oooOOXoooXOooooXO O.OO     ",
"   oOXXX.oXO o.OXXXXOO oXO      ",
"    ooooOoOO oOooooOO  oOO      ",
"                                ",
"    OOO OOOOOOOOOOOOOOOOOOOOO   ",
"    O.O OXOOXXXXOOXXXXO.XXXXO   ",
"   OoXOOoXOXoooOOXoooOooo.oOO   ",
"   O.OOOXOo.XXXOo.XXXO OoXO     ",
"   oXO.oXO.oooOOooooXO O.OO     ",
"   oOXXXOoOXXX.OXXXXOO oXO      ",
"    oooOO ooooOooooOO  oOO      ",
"                                "
};
