/* XPM */
static char *_6fce4eb191a46e3e32a74ae380f618dSH2cML1asPI0t1Mq[] = {
/* columns rows colors chars-per-pixel */
"32 32 6 1 ",
"  c None",
". c #131313",
"X c gray11",
"o c gray14",
"O c gray",
"+ c gray86",
/* pixels */
"              ..XX              ",
"               Xo               ",
"          .XXoooooooXX          ",
"           OO+++++++O           ",
"                                ",
"                                ",
"                                ",
"                                ",
"                                ",
"                                ",
"                                ",
"                                ",
"                                ",
"                                ",
"                                ",
"                                ",
"                                ",
"                                ",
"                                ",
"                                ",
"                                ",
"                                ",
"                                ",
"                                ",
"                                ",
"                                ",
"                                ",
"                                ",
"                                ",
"                                ",
"                                ",
"   OOOOO+++++++++++++++++++OO   "
};
