/* XPM */
static char *_2ef173715f547f9c8084d9dbca606e9DbIIyG3cQKzbTLx2[] = {
/* columns rows colors chars-per-pixel */
"32 32 3 1 ",
"  c None",
". c #0E0E0E",
"X c #131313",
/* pixels */
"                                ",
"  .XX.   XX.. .XXX  .XXXX .   X ",
"  X   . X   X X   X   .   X   X ",
"  X  .  .  X  .       .   .XXX  ",
" X   . X   X X       .   X   X  ",
" X   . .XX.  X       .   X   .  ",
"                                ",
"                                ",
"                                ",
"   XXXX  XX..  X  . .XXXX .   X ",
"  X     X   X X   X   .   X   X ",
"  .XXX  .  X  .  X    .   .XXX  ",
"     X X   X X   X   .   X   X  ",
" XXXX  .XX.   XX.    .   X   .  ",
"                                ",
"                                ",
"                                ",
"      XXXX  XXX.  XXXX .XXXX    ",
"     X     X   X X       .      ",
"     .XXX  .XXX  .XXX    X      ",
"    .     X   X     X   .       ",
"     XXX. X   . XXXX    X       ",
"                                ",
"                                ",
"                                ",
"     .   X  XXXX  XXXX .XXXX    ",
"     X   X X     X       .      ",
"    .   X  .XXX  .XXX    X      ",
"    X . X .         X   .       ",
"     XXX   XXX. XXXX    X       ",
"                                ",
"                                "
};
