/* XPM */
static char *a8dc9cf0cb1e4218e2f5e2bb7d3f3a0f6tFvKOnUjpOetujr[] = {
/* columns rows colors chars-per-pixel */
"32 32 10 1 ",
"  c None",
". c #2B3E16",
"X c #2F4517",
"o c #375A15",
"O c #457616",
"+ c #9F4E0B",
"@ c #AC5712",
"# c #D2752B",
"$ c #528919",
"% c #67A124",
/* pixels */
"           o oXo$$%$o           ",
"          O$$$OOo%X%$oO         ",
"         O%%$%O$o$Xooo%$        ",
"         %$%$%Xo@oOO$$o%        ",
"         $ %$% @+$$%O% $        ",
"     XX.  %$%O%XXo%o%O%  %$%    ",
"    X .XXo%$%o$XXX$XX.$ %$%O%   ",
"      o Xo$$$OXooXXX.XX %$% $   ",
"    %O%X%oXoOOXooX++o Xo$+$     ",
"   %$%%$$X$X$X+o+O%O%X%oX O     ",
"   $ %$%+X$+$ +X+%$%%$OX@X      ",
"     $ $+ o..X ++$o%$%OX        ",
"    XOX +oXOX%oXX o$o$oo ..X    ",
"   XX.o  $O%o%$ooXXOX$+oX X o   ",
"   o .XX %$O$% ooXX.o+@   o     ",
"     o X%$%%$$ X@o .XX %$O      ",
"     o  $$%$%  #+ #o X%$%%$     ",
"        O $#O  @# @o  $$%$%     ",
"          O @# +@#    O $ O     ",
"             @##+@      O       ",
"              @##               ",
"               ##               ",
"               @#               ",
"               +@               ",
"               ##               ",
"              ##@               ",
"              #@+#              ",
"              #@+#              ",
"              #@+#              ",
"             #@++#              ",
"            #@+@+@#             ",
"            ++@++@#             "
};
