/* XPM */
static char *result[] = {
/* columns rows colors chars-per-pixel */
"32 32 13 1 ",
"  c #2B3E16",
". c gray14",
"X c #292828",
"o c #2D2D2D",
"O c #383737",
"+ c #2F4517",
"@ c #375A15",
"# c #457616",
"$ c #414141",
"% c #4B4C4F",
"& c #585858",
"* c #528919",
"= c #67A124",
/* pixels */
"oo..oo..oo.oo.ooo...oo..o=*=.oo.",
"$$O.&&%&&&$%$o$$$OO.&&%&=*=#=%$o",
"OOo.&%%%$$$OOoOOOoo.&%%%=*=$*OOo",
"Ooo.&%%$%$$$OoOoooo.&%%$*$*$$$Oo",
"ooo.%$$$OOOOO.ooooo.%$$$OOOOOOO.",
"....ooo..oo.........ooo..oo.o...",
"&&%&%%%$.OOoOOOo&&%&%%%$.OOoOOOo",
"%%$%$$OOoOooooOo%%$%$$OOoOooooOo",
"%$%$$$OOoOOOooo.%$%$$$OOoOOOooo.",
"....oooo.ooo.....oo.oooo.oooo...",
"%$$O.%&&%&&&%$$OoOOo.%&&%&&&&%%$",
"$OOo.%$$$$$$$OOo.Ooo.%$$$$$$$$$O",
"OOoo.$$$$OO..........$$$$OOOOOOO",
"oo..ooo.oo..%%$%%O$%Xoo.oo...ooo",
"O$$$$$$oOOO.&&%$%%%&X$$oOOOo.$$O",
"$$$OOOOoOOo.O%O%OO%OXOOoOOoo.$OO",
"oo..oo..oo..%O%%%&&&Xo..oo..oooo",
"$$O.&&%&&&&.%XX%%XX%.&%&&&&o$$$$",
"OOo.&%%%$$$.&&%O%%O&X%%%$$$oOOOO",
"ooo.&%%$%$$.O$XXXX$O.%%$%$$oOooo",
"ooo.%$$$OOO.&%OO%&&&.$$$OOO.oooo",
"....ooo..ooX.XXX.....+#+.oo.....",
"&&%&%%%$.OOoOOOo&&%&++ @.OOoOOOo",
"%%$%$$OOoOooooOo%%$%@$ ++OooooOo",
"%$%$$$OOoOOOooo.%$%$$$@O+OOOooo.",
".oo.oooo.o.....ooo..oo@o.ooo....",
"oOOo.%&&%&%$$OoOOOOo.%&&%&&&%$$O",
".Ooo.%$$$$$OOo.Ooooo.%$$$$$$$OOo",
".ooo.$$$$OOOoo.ooooo.$$$$OOOOOoo",
"....ooo.o.oo........ooo.oo..oo..",
"O$$$$$$oOOOo.$$OO$$$$$$oOOOo.$$O",
"$$$OOOOoOOoo.$OO$$$OOOOoOOoo.$OO"
};
