/* XPM */
static char *result[] = {
/* columns rows colors chars-per-pixel */
"32 32 10 1 ",
"  c #2B3E16",
". c gray14",
"X c #2D2D2D",
"o c #383737",
"O c #2F4517",
"+ c #375A15",
"@ c #457616",
"# c #414141",
"$ c #4B4C4F",
"% c #585858",
/* pixels */
"XX..XX..XX.XX.XXX...XX..X  O.XX.",
"##o.%%$%%%#$#X###oo.%%$%O%O$+$#X",
"ooX.%$$$###ooXoooXX.%$$$##+##ooX",
"oXX.%$$#$###oXoXXXX.%$$#$#####oX",
"XXX.$###ooooo.XXXXX.$###ooooooo.",
"....XXX..XX.........XXX..XX.X...",
"%%$%$$$#.ooXoooX%%$%$$$#.ooXoooX",
"$$#$##ooXoXXXXoX$$#$##ooXoXXXXoX",
"$#$###ooXooo%%o%%%%###ooXoooXXX.",
"....XXXX%$$#$X...X$o#o#X.XXXX...",
"$##o.$%%%XXX#.###.#XXX$%$%%%%$$#",
"#ooX.$##%.#.$..#..#.#.$########o",
"ooXX.###$..X..$##X...Xo##ooooooo",
"XX..XXX.%o###...XX#####.XX...XXX",
"o######XoooX.#X.o######XoooX.##o",
"###ooooXooXX.%..X%#ooooXooXX.#oo",
"XX..XX..XX...$#.o#..XX..XX..XXXX",
"##o.%%$%%%%$##..X##.%%$%%%%X####",
"ooX.%$$$#######X##o.%$$$###Xoooo",
"XXX.%$$#$######oo#o.%$$#$##XoXXX",
"XXX.$###ooooooooooo.$###ooo.XXXX",
"....O@O..XX.X.......XXX..XX.....",
"%%$OO +#.ooXoooX%%$%$$$#.ooXoooX",
"$$#+# OOXoXXXXoX$$#$##ooXoXXXXoX",
"$#$##+oOXoooXXX.$#$###ooXoooXXX.",
".XX.X+XX.X.....XXX..XXXX.XXX....",
"XooX.$%%$%$##oXooooX.$%%$%%%$##o",
".oXX.$#####ooX.oXXXX.$#######ooX",
".XXX.####oooXX.XXXXX.####oooooXX",
"....XXX.X.XX........XXX.XX..XX..",
"o######XoooX.##oo######XoooX.##o",
"###ooooXooXX.#oo###ooooXooXX.#oo"
};
