/* XPM */
static char *result[] = {
/* columns rows colors chars-per-pixel */
"32 32 12 1 ",
"  c gray14",
". c #292828",
"X c #2D2D2D",
"o c #383737",
"O c #2F4517",
"+ c #375A15",
"@ c #457616",
"# c #414141",
"$ c #4B4C4F",
"% c #585858",
"& c #528919",
"* c #67A124",
/* pixels */
"XX  XX  XXOXX@XXX   XX  X++O+XX ",
"##o %OO%+*+*&&+*#oo %%$%+**&+$#X",
"ooX %++OO&*&&*&@*XX %$$@**&*@ooX",
"oXX %++O++O+*&*@&XX %$$*&*+*@#oX",
"XXX $O#Oo+oO*+*++XX $##&o&+&Ooo ",
"    XXX  XOO& & +   XXX @&X&X   ",
"%%$%$$$# ooXoooX%%$%$$$# +@XOooX",
"$$#$##ooXoXXXXoX$$#$##ooXoXXXXoX",
"$#$###ooXoooXXX $#$###ooXoooXXX ",
"    XXXX XXX     XX XXXX XXXX   ",
"$##o $%%$%%%$##oXooX $%%$%%%%$$#",
"#ooX $####XXX.X.....X$#########o",
"ooXX ####oX$$$$$$$#$.####ooooooo",
"XX  XXX XXX$######o#.XX XX   XXX",
"o######Xoo.$o#ooooo#.##XoooX ##o",
"###ooooXooXo$$$$$$#oXooXooXX #oo",
"XX  XX  XX.#$X$$$X$o.X  XX  XXXX",
"##o %%$%%%.o$X$##X#oX%$%%%%X####",
"ooX %$$$##.o#######o.$$$###Xoooo",
"XXX %$$#$#.$oo....o#X$$#$##XoXXX",
"XXX $###oo.####o##ooX###ooo XXXX",
"    XXX  XX....X.XXXXXX  XX     ",
"%%$%$$$# ooXoooX%%$%$$$# ooXoooX",
"$$#$##ooXoXXXXoX$$#$##ooXoXXXXoX",
"$#$###ooXoooXXX $#$###ooXoooXXX ",
" XX XXXX X     XXX  XXXX XXX    ",
"XooX $%%$%$##oXooooX $%%$%%%$##o",
" oXX $#####ooX oXXXX $#######ooX",
" XXX ####oooXX XXXXX ####oooooXX",
"    XXX X XX        XXX XX  XX  ",
"o######XoooX ##oo######XoooX ##o",
"###ooooXooXX #oo###ooooXooXX #oo"
};
