/* XPM */
static char *result[] = {
/* columns rows colors chars-per-pixel */
"32 32 6 1 ",
"  c gray14",
". c #2D2D2D",
"X c #383737",
"o c #414141",
"O c #4B4C4F",
"+ c #585858",
/* pixels */
"..  ..  .. .. ...   ..  ..   .. ",
"ooX ++O+++oOo.oooXX ++O++++OoOo.",
"XX. +OOOoooXX.XXX.. +OOOoooooXX.",
"X.. +OOoOoooX.X.... +OOoOoooooX.",
"... OoooXXXXX ..... OoooXXXXXXX ",
"    ...  ..         ...  .. .   ",
"++O+OOOo XX.XXX.++O+OOOo XX.XXX.",
"OOoOooXX.X....X.OOoOooXX.X....X.",
"OoOoooXX.XXX... OoOoooXX.XXX... ",
"    .... ...     .. .... ....   ",
"OooX O++O+++OooX.XX. O++O++++OOo",
"oXX. OoooooooXX. X.. OoooooooooX",
"XX.. ooooXXXXX.. ... ooooXXXXXXX",
"..  ... ..  ..      ... ..   ...",
"Xoooooo.XXX. ooXXoooooo.XXX. ooX",
"oooXXXX.XX.. oXXoooXXXX.XX.. oXX",
"..  ..  ..   .. ..  ..  ..  ....",
"ooX ++O++++OoO+OoOo ++O++++.oooo",
"XX. +OOOoooooXoooXX +OOOooo.XXXX",
"... +OOoOoooooooooX +OOoOoo.X...",
"... OoooXXXXXXXXXXX OoooXXX ....",
"    ...  .. .       ...  ..     ",
"++O+OOOo XX.XXX.++O+OOOo XX.XXX.",
"OOoOooXX.X....X.OOoOooXX.X....X.",
"OoOoooXX.XXX... OoOoooXX.XXX... ",
" .. .... .     ...  .... ...    ",
".XX. O++O+OooX.XXXX. O++O+++OooX",
" X.. OoooooXX. X.... OoooooooXX.",
" ... ooooXXX.. ..... ooooXXXXX..",
"    ... . ..        ... ..  ..  ",
"Xoooooo.XXX. ooXXoooooo.XXX. ooX",
"oooXXXX.XX.. oXXoooXXXX.XX.. oXX"
};
