/* XPM */
static char *result[] = {
/* columns rows colors chars-per-pixel */
"32 32 12 1 ",
"  c #2B3E16",
". c gray14",
"X c #2D2D2D",
"o c #383737",
"O c #2F4517",
"+ c #375A15",
"@ c #457616",
"# c #414141",
"$ c #4B4C4F",
"% c #585858",
"& c #528919",
"* c #67A124",
/* pixels */
"XX..XX..XX.XX.XXX...XX..XX...XX.",
"#*@*O%$%*%#$#X##*&*.%%$%%%%$#$#X",
"*&**&$&&**#ooXo*&*@*%$$$#####ooX",
"&X*&*$$#**O#oXo*&*X&%$$#$#####oX",
"XX&.&#O&&*ooo.X&X&X.$###ooooooo.",
".O@O+O@O&XX....O.@..XXX..XX.X...",
"OO +$ +#.ooXoooXO%$%$$$#.ooXoooX",
"+$ OO+OoXoXXXXoX$$#$##ooXoXXXXoX",
"$#+#+#OoXoooXXX.  O###ooXoooXXX.",
"..+.XXXX.XXX...O.OX+XXXX.XXXX...",
"$##o.$%%$%%%$##oX+oX.$%%$%%%%$$#",
"#ooX.$#######ooX.oXX.$#########o",
"ooXX.####oooooXX.XXX.####ooooooo",
"XX..XXX.XX..XX......XXX.XX...XXX",
"o######XoooX.##oo######XoooX.##o",
"###ooooXooXX.#oo###ooooXooXX.#oo",
"XX..XX..XX...XX.XX..XX..XX..XXXX",
"##o.%%*@*O%$#$%$#$#.%%$%%%%X####",
"ooX.%*&**&###o###oo.%$$$###Xoooo",
"XXX.%&$*&*########o.%$$#$##XoXXX",
"XXX.$##&o&ooooooooo.$###ooo.XXXX",
"....XO@OOXX.X.......  O..XX.....",
"%%$%OO +.ooXoooX%%$O$O$+.ooXoooX",
"$$#$+# OOoXXXXoX$$#$#+ooXoXXXXoX",
"$#$###+oOoooXXX.$#$###ooXoooXXX.",
".XX.XX+X.X.....XXX..XXXX.XXX....",
"XooX.$%%$%$##oXooooX.$%%$%%%$##o",
".oXX.$#####ooX.oXXXX.$#######ooX",
".XXX.####oooXX.XXXXX.####oooooXX",
"....XXX.X.XX........XXX.XX..XX..",
"o######XoooX.##oo######XoooX.##o",
"###ooooXooXX.#oo###ooooXooXX.#oo"
};
