/* XPM */
static char *result[] = {
/* columns rows colors chars-per-pixel */
"64 64 13 1 ",
"  c #372E10",
". c #65531B",
"X c #7E6820",
"o c #A18327",
"O c #B19537",
"+ c #C1B15F",
"@ c #898989",
"# c #A7A7A7",
"$ c gray",
"% c #D7CD93",
"& c gray86",
"* c white",
"= c None",
/* pixels */
"================================================================",
"================================================================",
"================================================================",
"================================================================",
"================================================================",
"================================================================",
"================================================================",
"================================================================",
"================================================================",
"================================================================",
"================================================================",
"================================================================",
"================================================================",
"================================================================",
"================================================================",
"================================================================",
"================================================================",
"================================================================",
"================================================================",
"================================================================",
"================================================================",
"================================================================",
"================================================================",
"================================================================",
"================================================================",
"================================================================",
"================================================================",
"================================================================",
"================================================================",
"================================================================",
"================================================================",
"================================================================",
"================================%++=============================",
"========================== .XXO+%%+OX.==========================",
"==========================#$&&&****&&$==========================",
"=========================#$&&&******&$$=========================",
"=========================#$XXO&+&%%+&$#=========================",
"=========================#$$X&OO%**+O$#=========================",
"=========================#$$&&&&&**&&$#=========================",
"=========================#$$&&&&&%%&&$X=========================",
"=========================#$$&&&&+%+&&$O=========================",
"=========================#$$&&&+%%*&&O#=========================",
"=========================#$$&&O+%%*&&OO=========================",
"=========================#$$&O+++%*&+OX=========================",
"=========================#$$&OO&%%*&O$X=========================",
"=========================#$$oOO&&%%&&O#=========================",
"=========================#$$OO&&&%%&+$X=========================",
"=========================#$$oO&&&%%&+OX=========================",
"=========================#$OO&&&&*%+&$#=========================",
"=========================#$oOO+++*%%&OX=========================",
"=========================#$OoOO+%%%+&O#=========================",
"=========================#$oO&&&&**%+$X=========================",
"=========================#$$o&&&+**+O$X=========================",
"=========================#$$o&&+&+%&&+X=========================",
"=========================#$$&O&++*%++$#=========================",
"=========================#$$&&O++%*%+OX=========================",
"=========================#$$&&O&+*%&O$X=========================",
"=========================#$$&O++%+*++O#=========================",
"=========================#$$&O&++*%%+$X=========================",
"=========================#$$XO+&%**&OOX=========================",
"=========================#$$X&O+&%*%&$#=========================",
"=========================##X$OO+&**&&OX=========================",
"=========================@@##$$&&&$$#@@=========================",
"==========================@@##$$&$$##@=========================="
};
