/* XPM */
static char *_3509519d9304f3db6d76a0245c59dafM3nYkgryKAxXpFLA[] = {
/* columns rows colors chars-per-pixel */
"32 32 12 1 ",
"  c #0E0E0E",
". c #131313",
"X c gray14",
"o c #2D2D2D",
"O c #383737",
"+ c #414141",
"@ c #4B4C4F",
"# c #585858",
"$ c #898989",
"% c #A7A7A7",
"& c gray",
"* c gray86",
/* pixels */
"ooXXooXXooXooXoooXXXooXXooXXXooX",
"$$$$$$$%%%%&&&&&**&&&&&%%%%$$$$$",
"$$$$$%%%%&&&&&*******&&&&%%$$$$$",
"OooX#@@+@+++OoOooooX#@@+@+++++Oo",
"o******+********************O***",
"X* .. ***..  * ...** ....* *o*.*",
"#&.&&* *.&&&.&.&&*.&&& &*&.**&.*",
"*&.** *& **.*& *@&***& **& ...**",
"*.**& *.**&.*.**@+@+* ***.&&&.*X",
"&.*X& & .. *&.*XXooX& *o&.*o& *X",
"&**O&*&&&&**&**OoOOo&**#&**#&**+",
"+OOoX@+++++++OOoXOooX@+++++++++O",
"OOooX++++OOOOOooXoooX++++OOOOOOO",
"ooXXoooXooXXooXXXXXXoooXooXXXooo",
"O++++++oOOOoX++OO++++++oOOOoX++O",
"+++OOOOoOOooX+OO+++OOOOoOOooX+OO",
"ooXXooXXooXXXooXooXXooXXooXXoooo",
"++OX##@####@+@#@+@+X##@####o++++",
"OOoX#@@@+++++O+++OOX#@@@+++oOOOO",
"oooX#@@+@+++++++++OX#@@+@++oOooo",
"oooX@+++OOOOOOOOOOOX@+++OOOXoooo",
"XXXXoooXXooXoXXXXXXXoooXXooXXXXX",
"##@#@@@+XOOoOOOo##@#@@@+XOOoOOOo",
"@@+@++OOoOooooOo@@+@++OOoOooooOo",
"@+@+++OOoOOOoooX@+@+++OOoOOOoooX",
"$%&&ooooXoXXXXXoooXXooooXooo&&%$",
"oOO&X@##@#@++OoOOOOoX@##@###&++O",
"X%o%X@+++++OOoXOooooX@++++++%O%o",
"Xoo$X++++OOOooXoooooX++++OOO%Ooo",
"$$$$$%%%%&&&&&*******&&&&%%$$$$$",
"$$$$$$$%%%%&&&&&**&&&&&%%%%$$$$$",
"+++OOOOoOOooX+OO+++OOOOoOOooX+OO"
};
